<svg id="Layer_1" enable-background="new 0 0 512 512" height="512" viewBox="0 0 512 512" width="512" xmlns="http://www.w3.org/2000/svg"><g clip-rule="evenodd" fill-rule="evenodd"><path d="m196.968 170.021h296.038c10.435 0 18.993 8.532 18.993 18.999v52.658c0 10.467-8.559 18.999-18.993 18.999h-296.038l-28.548-48.407z" fill="#ececec"/><path d="m333.937 170.021h-87.58l37.342 90.655h87.58z" fill="#838383"/><path d="m493.007 170.021h-71.489l37.342 90.656h34.147c10.435 0 18.993-8.532 18.993-18.999v-52.658c0-10.467-8.559-18.999-18.993-18.999z" fill="#838383"/><path d="m98.484 36.5c-54.166 0-98.484 44.331-98.484 98.513v307.532c0 18.119 14.831 32.955 32.945 32.955h131.078c18.114 0 32.945-14.836 32.945-32.955 0-113.759 0-208.93 0-307.532 0-54.182-44.318-98.513-98.484-98.513z" fill="#03bed7"/><path d="m196.968 135.013c0-54.182-44.318-98.513-98.484-98.513-9.878 0-19.404 1.466-28.431 4.193 40.449 12.285 70.082 50.019 70.082 94.321v7.946h2.228c6.185 0 11.226 5.072 11.226 11.259v87.489c0 6.186-5.041 11.259-11.226 11.259h-2.228v189.58c0 18.119-14.831 32.955-32.975 32.955h56.863c18.114 0 32.945-14.836 32.945-32.955v-181.871-90.656z" fill="#0099b1"/><path d="m493.007 170.021h-35.73c10.435 0 18.993 8.532 18.993 18.999v52.658c0 9.939-7.738 18.149-17.44 18.94l.029.059h34.147c10.435 0 18.993-8.532 18.993-18.999v-52.658c.001-10.467-8.558-18.999-18.992-18.999z" fill="#595959"/><path d="m142.362 142.959h-87.463c-6.185 0-11.255 5.072-11.255 11.259v87.489c0 6.186 5.071 11.259 11.255 11.259h87.463c6.185 0 11.226-5.072 11.226-11.259v-87.489c0-6.187-5.041-11.259-11.226-11.259z" fill="#ececec"/><path d="m142.362 142.959h-36.111c6.185 0 11.255 5.072 11.255 11.259v87.489c0 6.186-5.071 11.259-11.255 11.259h36.111c6.185 0 11.226-5.072 11.226-11.259v-87.489c0-6.187-5.041-11.259-11.226-11.259z" fill="#cecece"/></g></svg>