<svg height="480pt" viewBox="-96 0 480 480" width="480pt" xmlns="http://www.w3.org/2000/svg"><path d="m248 8h-208c-17.671875 0-32 14.328125-32 32v16h272v-16c0-17.671875-14.328125-32-32-32zm0 0" fill="#9bc9ff"/><path d="m8 440c0 17.671875 14.328125 32 32 32h208c17.671875 0 32-14.328125 32-32v-16h-272zm0 0" fill="#9bc9ff"/><g fill="#1e81ce"><path d="m160 456h-32c-4.417969 0-8-3.582031-8-8s3.582031-8 8-8h32c4.417969 0 8 3.582031 8 8s-3.582031 8-8 8zm0 0"/><path d="m248 0h-208c-22.082031.0273438-39.9726562 17.917969-40 40v400c.0273438 22.082031 17.917969 39.972656 40 40h208c22.082031-.027344 39.972656-17.917969 40-40v-400c-.027344-22.082031-17.917969-39.9726562-40-40zm-232 64h256v352h-256zm24-48h208c13.253906 0 24 10.746094 24 24v8h-256v-8c0-13.253906 10.746094-24 24-24zm208 448h-208c-13.253906 0-24-10.746094-24-24v-8h256v8c0 13.253906-10.746094 24-24 24zm0 0"/><path d="m112 40h8c4.417969 0 8-3.582031 8-8s-3.582031-8-8-8h-8c-4.417969 0-8 3.582031-8 8s3.582031 8 8 8zm0 0"/><path d="m144 40h32c4.417969 0 8-3.582031 8-8s-3.582031-8-8-8h-32c-4.417969 0-8 3.582031-8 8s3.582031 8 8 8zm0 0"/><path d="m157.335938 240 55.464843-41.601562c2.011719-1.507813 3.199219-3.878907 3.199219-6.398438s-1.1875-4.890625-3.199219-6.398438l-64-48c-2.425781-1.820312-5.667969-2.113281-8.378906-.757812s-4.421875 4.125-4.421875 7.15625v80l-51.199219-38.398438c-3.535156-2.652343-8.550781-1.9375-11.199219 1.597657-2.652343 3.535156-1.9375 8.550781 1.597657 11.199219l55.464843 41.601562-55.464843 41.601562c-3.535157 2.648438-4.25 7.664063-1.597657 11.199219 2.648438 3.535157 7.664063 4.25 11.199219 1.597657l51.199219-38.398438v80c0 3.03125 1.710938 5.800781 4.421875 7.15625s5.953125 1.0625 8.378906-.757812l64-48c2.011719-1.507813 3.199219-3.878907 3.199219-6.398438s-1.1875-4.890625-3.199219-6.398438zm-5.335938-80 42.664062 32-42.664062 32zm0 160v-64l42.664062 32zm0 0"/></g></svg>